<svg width="44" height="44" viewBox="0 0 44 44" fill="none" xmlns="http://www.w3.org/2000/svg">
<path fill-rule="evenodd" clip-rule="evenodd" d="M3.66669 22C3.66669 11.88 11.8617 3.66666 21.9817 3.66666C32.12 3.66666 40.3334 11.88 40.3334 22C40.3334 32.12 32.12 40.3333 21.9817 40.3333C11.8617 40.3333 3.66669 32.12 3.66669 22ZM7.33335 22C7.33335 30.1033 13.8967 36.6667 22 36.6667C30.1034 36.6667 36.6667 30.1033 36.6667 22C36.6667 13.8967 30.1034 7.33332 22 7.33332C13.8967 7.33332 7.33335 13.8967 7.33335 22Z" fill="black"/>
<path d="M22.9167 12.8333H20.1667V23.8333L29.7917 29.6083L31.1667 27.3533L22.9167 22.4583V12.8333Z" fill="black"/>
</svg>
