<svg width="24" height="24" viewBox="0 0 24 24" fill="none" xmlns="http://www.w3.org/2000/svg">
<path fill-rule="evenodd" clip-rule="evenodd" d="M17.21 8.99999H22C22.55 8.99999 23 9.44999 23 9.99999L22.97 10.27L20.43 19.54C20.19 20.38 19.42 21 18.5 21H5.5C4.58 21 3.81 20.38 3.58 19.54L1.04 10.27C1.01 10.18 1 10.09 1 9.99999C1 9.44999 1.45 8.99999 2 8.99999H6.79L11.17 2.44999C11.36 2.15999 11.68 2.01999 12 2.01999C12.32 2.01999 12.64 2.15999 12.83 2.43999L17.21 8.99999ZM14.8 8.99999L12 4.79999L9.2 8.99999H14.8ZM18.5 19L5.51 19.01L3.31 11H20.7L18.5 19ZM10 15C10 13.9 10.9 13 12 13C13.1 13 14 13.9 14 15C14 16.1 13.1 17 12 17C10.9 17 10 16.1 10 15Z" fill="#595959"/>
</svg>
